:SAMPLES-PER-SECOND 30
:FULLY-SPECIFIED
:DEGREES
102
root  6.125266533 35.86555541 -2.285622236 6.51499939 -64.17700195 0.8979949951
lowerback  15.3760004 2.637470007 -2.650140047
upperback  4.600160122 2.869309902 -0.7548429966
thorax  -3.819210052 1.352839947 0.1802410036
lowerneck  -6.44314003 5.324520111 -4.423659801
upperneck  -2.514820099 7.366980076 -0.8196079731
head  0.1509180069 3.704080105 0.6072360277
lclavicle  0 -9.442270133e-015 7.951389973e-016
lhumerus  3.401590109 -18.14419937 84.6269989
lradius  2.577114657e-031 -2.413985104e-031 136.871994
lwrist  -3.531125038e-031 -0 5.026760101
lhand  -1.496451383e-031 -27.76390076 20.11240005
lfingers  90 7.125020027 -90
lthumb  89.89689403 5.08795885 91.16245106
rclavicle  0 -9.442270133e-015 7.951389973e-016
rhumerus  -14.58909988 27.70159912 -82.06890106
rradius  -2.408356971e-031 2.582375019e-031 133.003006
rwrist  1.059337512e-030 -3.531125038e-031 -0.04988690093
rhand  -7.920061211e-032 -33.2840004 9.303460121
rfingers  -90 -7.125020027 -90
rthumb  -92.93752616 -24.25625642 -97.11982154
rfemur  -13.62450027 10.17370033 7.047880173
rtibia  -0 0 59.61930084
rfoot  -0 -34.84180069 -16.65810013
rtoes  5.373923086 19.29304026 -105.8922705
lfemur  -36.86819839 5.571790218 -2.711080074
ltibia  -0 0 68.31420135
lfoot  -0 -22.68180084 -7.864220142
ltoes  -4.250644065 -19.5611806 -102.515957
103
root  6.060911164 36.04822234 -2.141540069 6.229003906 -64.53500366 0.7420043945
lowerback  15.14449978 2.66121006 -2.156419992
upperback  4.630929947 2.992079973 -0.6085940003
thorax  -3.649230003 1.412559986 0.04427209869
lowerneck  -6.150159836 5.441949844 -4.513559818
upperneck  -1.978090048 7.528389931 -1.160140038
head  0.2749420106 3.77373004 0.5224050283
lclavicle  0 -9.442270133e-015 7.951389973e-016
lhumerus  2.729310036 -17.53120041 85.14369965
lradius  2.566430567e-031 -2.425340838e-031 136.6190033
lwrist  0 -1.765562519e-031 5.4823699
lhand  -1.496451383e-031 -27.76390076 20.11240005
lfingers  90 7.125020027 -90
lthumb  89.89689403 5.08795885 91.16245106
rclavicle  0 -9.442270133e-015 7.951389973e-016
rhumerus  -15.76860046 28.19639969 -82.30370331
rradius  -2.330779568e-031 2.652604501e-031 131.3049927
rwrist  7.062250077e-031 -0 -0.6120830178
rhand  -7.920061211e-032 -33.2840004 9.303460121
rfingers  -90 -7.125020027 -90
rthumb  -92.93752616 -24.25625642 -97.11982154
rfemur  -12.91119957 10.10499954 6.956860065
rtibia  -0 0 58.90510178
rfoot  -0 -33.68510056 -16.43370056
rtoes  5.373923086 19.29304026 -105.8922705
lfemur  -36.12730026 6.184110165 -2.841749907
ltibia  -0 0 68.27459717
lfoot  -0 -21.68580055 -7.942420006
ltoes  -4.250644065 -19.5611806 -102.515957
104
root  6.000133199 36.2424445 -1.968873392 4.772994995 -65.09700012 1.565994263
lowerback  15.17689991 2.695590019 -2.066859961
upperback  4.6979599 3.05170989 -0.5180109739
thorax  -3.597520113 1.439810038 0.07847370207
lowerneck  -5.899310112 5.646669865 -4.800260067
upperneck  -1.269530058 7.826550007 -1.345720053
head  0.4442040026 3.908770084 0.5242310166
lclavicle  0 -9.442270133e-015 7.951389973e-016
lhumerus  1.969280005 -16.70849991 85.68470001
lradius  2.552632174e-031 -2.439859222e-031 136.2940063
lwrist  0 -1.765562519e-031 5.748429775
lhand  -1.496451383e-031 -27.76390076 20.11240005
lfingers  90 7.125020027 -90
lthumb  89.89689403 5.08795885 91.16245106
rclavicle  0 -9.442270133e-015 7.951389973e-016
rhumerus  -16.88190079 29.01309967 -82.57250214
rradius  -2.23673786e-031 2.73237036e-031 129.3040009
rwrist  7.062250077e-031 -3.531125038e-031 -0.8159049749
rhand  -7.920061211e-032 -33.2840004 9.303460121
rfingers  -90 -7.125020027 -90
rthumb  -92.93752616 -24.25625642 -97.11982154
rfemur  -11.90799999 10.38049984 6.412220001
rtibia  -0 0 58.18450165
rfoot  -0 -32.31999969 -16.37890053
rtoes  5.373923086 19.29304026 -105.8922705
lfemur  -34.95460129 6.590720177 -3.387290001
ltibia  -0 0 68.15039825
lfoot  -0 -20.49939919 -8.144929886
ltoes  -4.250644065 -19.5611806 -102.515957
105
root  5.92911112 36.44289032 -1.771715495 3.406997681 -65.43499756 2.31199646
lowerback  15.13949966 2.660470009 -1.770089984
upperback  4.692389965 3.053849936 -0.4706330001
thorax  -3.570950031 1.441210032 -0.03741740063
lowerneck  -5.518899918 5.851099968 -4.738319874
upperneck  -0.4074299932 8.102290154 -1.55941999
head  0.65526402 4.026609898 0.4611639977
lclavicle  0 -9.442270133e-015 7.951389973e-016
lhumerus  1.116240025 -16.17350006 86.03690338
lradius  2.542860005e-031 -2.450042251e-031 136.0650024
lwrist  -7.062250077e-031 -1.765562519e-031 6.059140205
lhand  -1.496451383e-031 -27.76390076 20.11240005
lfingers  90 7.125020027 -90
lthumb  89.89689403 5.08795885 91.16245106
rclavicle  0 -9.442270133e-015 7.951389973e-016
rhumerus  -18.13839912 29.6487999 -82.96669769
rradius  -2.13619109e-031 2.811677731e-031 127.2259979
rwrist  7.062250077e-031 -3.531125038e-031 -1.212270021
rhand  -7.920061211e-032 -33.2840004 9.303460121
rfingers  -90 -7.125020027 -90
rthumb  -92.93752616 -24.25625642 -97.11982154
rfemur  -10.83059978 10.62510014 5.938879967
rtibia  -0 0 57.45610046
rfoot  -0 -30.90740013 -16.09410095
rtoes  5.373923086 19.29304026 -105.8922705
lfemur  -33.85229874 6.637440205 -3.787440062
ltibia  -0 0 67.9457016
lfoot  -0 -18.78319931 -9.105400085
ltoes  -4.250644065 -19.5611806 -102.515957
106
root  5.846044585 36.65955611 -1.5651089 2.919998169 -65.77700043 2.164993286
lowerback  15.00689983 2.593640089 -1.065739989
upperback  4.630249977 3.08149004 -0.3672290146
thorax  -3.534909964 1.456809998 -0.3255220056
lowerneck  -5.006800175 6.065750122 -4.438129902
upperneck  0.4733169973 8.374349594 -1.828879952
head  0.8639000058 4.141389847 0.3395119905
lclavicle  0 -9.442270133e-015 7.951389973e-016
lhumerus  0.1672530025 -15.86100006 86.23329926
lradius  2.533605369e-031 -2.459611325e-031 135.848999
lwrist  0 -1.765562519e-031 5.970419884
lhand  -1.496451383e-031 -27.76390076 20.11240005
lfingers  90 7.125020027 -90
lthumb  89.89689403 5.08795885 91.16245106
rclavicle  0 -9.442270133e-015 7.951389973e-016
rhumerus  -19.30520058 30.1215992 -83.45829773
rradius  -2.027792468e-031 2.890830632e-031 125.0479965
rwrist  0 -0 -1.79527998
rhand  -7.920061211e-032 -33.2840004 9.303460121
rfingers  -90 -7.125020027 -90
rthumb  -92.93752616 -24.25625642 -97.11982154
rfemur  -9.908430099 10.91740036 5.879909992
rtibia  -0 0 56.81370163
rfoot  -0 -29.36009979 -15.64770031
rtoes  5.373923086 19.29304026 -105.8922705
lfemur  -32.79679871 6.752709866 -3.710860014
ltibia  -0 0 67.74810028
lfoot  -0 -16.82889938 -10.24680042
ltoes  -4.250644065 -19.5611806 -102.515957
